<?xml version="1.0" encoding="UTF-8"?>
<svg id="gradient" xmlns="http://www.w3.org/2000/svg" viewBox="0 0 64 64">
  <defs>
    <style>
      .cls-1 {
        fill: #ffc000;
        stroke-width: 0px;
      }
    </style>
  </defs>
  <path class="cls-1" d="M54,2H15.98c-3.85,0-6.98,3.13-6.98,6.98v42c0,3.86,3.14,7,7,7h5v3.02c0,.55.45,1,1,1,.27,0,.52-.11.71-.29l3.29-3.29,3.29,3.29c.19.19.44.29.71.29.13,0,.26-.03.38-.08.37-.15.62-.52.62-.92v-3.02h23c.55,0,1-.45,1-1,0-.27-.11-.52-.29-.71-2.92-2.92-2.92-7.66,0-10.59.18-.19.29-.44.28-.71h0V3c0-.55-.45-1-1-1ZM53,6.59l-2.59-2.59h2.59v2.59ZM11,8.99c0-2.75,2.23-4.98,4.98-4.99h1.02v38h2V4h28.59l5.41,5.41v29.17l-5.4,5.4h-31.6c-1.88,0-3.69.76-5,2.11V8.99ZM29,58.59l-2.29-2.29c-.39-.39-1.02-.39-1.41,0l-2.29,2.29v-8.59h6v8.59ZM51.94,55.99h-20.94v-5.99h12v-2h-21c-.55,0-1,.45-1,1v6.98h-5c-2.76,0-5-2.24-5-5s2.24-5,5-5h35.94c-1.89,3.06-1.89,6.94,0,10h0ZM50.43,43.99l2.57-2.57v2.57h-2.57Z"/>
  <path class="cls-1" d="M26,18h7v14c0,.55.45,1,1,1h4c.55,0,1-.45,1-1v-14h7c.55,0,1-.45,1-1v-4c0-.55-.45-1-1-1h-7v-4c0-.55-.45-1-1-1h-4c-.55,0-1,.45-1,1v4h-7c-.55,0-1,.45-1,1v4c0,.55.45,1,1,1ZM27,14h7c.55,0,1-.45,1-1v-4h2v4c0,.55.45,1,1,1h7v2h-7c-.55,0-1,.45-1,1v14h-2v-14c0-.55-.45-1-1-1h-7v-2Z"/>
  <rect class="cls-1" x="33" y="52" width="15" height="2"/>
</svg>